<svg width="64" height="64" xmlns="http://www.w3.org/2000/svg">
 <g>
  <title>background</title>
  <rect x="-1" y="-1" width="66" height="66" id="canvas_background" fill="none"/>
 </g>

 <g>
  <title>Layer 1</title>
  <rect height="14" width="4" x="56" y="4" fill="#00bf5f" id="svg_2"/>
  <rect height="12" width="4" x="32" y="19" fill="#ff5656" id="svg_3"/>
  <rect height="19" width="4" x="44" y="14" fill="#00bf5f" id="svg_4"/>
  <polygon points="21,14 20,14 20,25 24,25 24,14 23,14 " fill="#ff5656" id="svg_5"/>
  <rect height="16" width="4" x="8" y="13" fill="#ff5656" id="svg_6"/>
  <rect height="14" width="2" x="14" y="42" fill="#aad4ff" id="svg_7"/>
  <path d="m21.447,54.105l10.902,5.451c0.383,0.191 0.836,0.178 1.207,-0.038l21.814,-12.725c0.389,-0.227 0.63,-0.647 0.63,-1.096c0,-0.375 -0.165,-0.729 -0.452,-0.971c-0.287,-0.241 -0.665,-0.343 -1.034,-0.279l-18.445,3.208l0.809,0.809c0.724,0.724 1.122,1.685 1.122,2.707c0,2.112 -1.717,3.829 -3.829,3.829c-1.022,0 -1.984,-0.398 -2.707,-1.122l-5.171,-5.171l1.414,-1.414l5.171,5.171c0.346,0.346 0.805,0.536 1.293,0.536c1.009,0 1.829,-0.82 1.829,-1.829c0,-0.488 -0.19,-0.947 -0.536,-1.293l-7.878,-7.878l-9.586,0l0,12l3,0c0.155,0 0.309,0.036 0.447,0.105z" fill="#EFA022" id="svg_8"/>
  <rect height="14" width="8" x="4" y="42" fill="#aad4ff" id="svg_9"/>
  <path d="m54.171,42.477l-19.831,3.449l-5.633,-5.633c-0.188,-0.188 -0.442,-0.293 -0.707,-0.293l-11,0l-4,0l-10,0c-0.552,0 -1,0.448 -1,1l0,16c0,0.552 0.448,1 1,1l10,0l4,0c0.552,0 1,-0.448 1,-1l0,-1l2.764,0l10.691,5.346c0.463,0.231 0.963,0.346 1.462,0.346c0.569,0 1.137,-0.149 1.646,-0.446l21.814,-12.725c1,-0.584 1.622,-1.666 1.622,-2.823c0,-0.967 -0.424,-1.879 -1.165,-2.501c-0.739,-0.624 -1.708,-0.883 -2.663,-0.72zm-50.171,-0.477l8,0l0,14l-8,0l0,-14zm12,14l-2,0l0,-14l2,0l0,14zm39.371,-9.207l-21.815,12.725c-0.371,0.216 -0.823,0.23 -1.207,0.038l-10.902,-5.451c-0.138,-0.069 -0.292,-0.105 -0.447,-0.105l-3,0l0,-12l9.586,0l7.878,7.878c0.346,0.346 0.536,0.805 0.536,1.293c0,1.009 -0.82,1.829 -1.829,1.829c-0.488,0 -0.947,-0.19 -1.293,-0.536l-5.171,-5.171l-1.414,1.414l5.171,5.171c0.723,0.724 1.685,1.122 2.707,1.122c2.112,0 3.829,-1.717 3.829,-3.829c0,-1.022 -0.398,-1.984 -1.122,-2.707l-0.809,-0.809l18.445,-3.208c0.369,-0.064 0.746,0.038 1.034,0.279c0.287,0.242 0.452,0.596 0.452,0.971c0,0.449 -0.241,0.869 -0.629,1.096z" id="svg_10"/>
  <path d="m7,31l2,0l0,4l2,0l0,-4l2,0c0.552,0 1,-0.448 1,-1l0,-18c0,-0.552 -0.448,-1 -1,-1l-2,0l0,-9l-2,0l0,9l-2,0c-0.552,0 -1,0.448 -1,1l0,18c0,0.552 0.448,1 1,1zm1,-18l4,0l0,16l-4,0l0,-16z" id="svg_11"/>
  <path d="m19,27l6,0c0.552,0 1,-0.448 1,-1l0,-13c0,-0.552 -0.448,-1 -1,-1l-2,0l0,-3l-2,0l0,3l-2,0c-0.552,0 -1,0.448 -1,1l0,13c0,0.552 0.448,1 1,1zm1,-13l1,0l2,0l1,0l0,11l-4,0l0,-11z" id="svg_12"/>
  <path d="m31,33l2,0l0,3l2,0l0,-3l2,0c0.552,0 1,-0.448 1,-1l0,-14c0,-0.552 -0.448,-1 -1,-1l-2,0l0,-2l-2,0l0,2l-2,0c-0.552,0 -1,0.448 -1,1l0,14c0,0.552 0.448,1 1,1zm1,-14l4,0l0,12l-4,0l0,-12z" id="svg_13"/>
  <path d="m43,35.07048l2,0l0,6l2,0l0,-6l2,0c0.552,0 1,-0.448 1,-1l0,-21c0,-0.552 -0.448,-1 -1,-1l-2,0l0,-5l-2,0l0,5l-2,0c-0.552,0 -1,0.448 -1,1l0,21c0,0.552 0.448,1 1,1zm1,-21l4,0l0,19l-4,0l0,-19z" id="svg_14"/>
  <path d="m61,2l-6,0c-0.552,0 -1,0.448 -1,1l0,16c0,0.552 0.448,1 1,1l2,0l0,3l2,0l0,-3l2,0c0.552,0 1,-0.448 1,-1l0,-16c0,-0.552 -0.448,-1 -1,-1zm-1,16l-4,0l0,-14l4,0l0,14z" id="svg_15"/>
 </g>
</svg>